<?xml version="1.0" encoding="UTF-8"?>
<svg xmlns="http://www.w3.org/2000/svg" version="1.1" xmlns:xlink="http://www.w3.org/1999/xlink" viewBox="0 0 161.6 39.4">
  <defs>
    <style>
      .cls-1 {
        fill: #7fb129;
      }

      .cls-2 {
        clip-path: url(#clippath-4);
      }

      .cls-3 {
        fill: #7eaa24;
      }

      .cls-4 {
        fill: none;
      }

      .cls-5 {
        clip-path: url(#clippath-1);
      }

      .cls-6 {
        clip-path: url(#clippath-3);
      }

      .cls-7 {
        fill: #34393b;
      }

      .cls-8 {
        clip-path: url(#clippath-2);
      }

      .cls-9 {
        clip-path: url(#clippath);
      }
    </style>
    <clipPath id="clippath">
      <rect class="cls-4" y="0" width="161.6" height="39.4"/>
    </clipPath>
    <clipPath id="clippath-1">
      <rect class="cls-4" y="0" width="161.6" height="39.4"/>
    </clipPath>
    <clipPath id="clippath-2">
      <rect class="cls-4" y="0" width="161.6" height="39.4"/>
    </clipPath>
    <clipPath id="clippath-3">
      <rect class="cls-4" y="0" width="161.6" height="39.4"/>
    </clipPath>
    <clipPath id="clippath-4">
      <rect class="cls-4" y="0" width="161.6" height="39.4"/>
    </clipPath>
  </defs>
  <!-- Generator: Adobe Illustrator 28.7.9, SVG Export Plug-In . SVG Version: 1.2.0 Build 218)  -->
  <g>
    <g id="Ebene_1">
      <g class="cls-9">
        <path class="cls-3" d="M45.6,35.7l-2.8-4c1.6-.7,2.6-2.1,2.6-4,0-2.8-2.1-4.6-5.5-4.6h-5.5v12.6h2.9v-3.5h2.7l2.4,3.5h3.1ZM42.5,27.7c0,1.4-.9,2.2-2.7,2.2h-2.4v-4.4h2.4c1.8,0,2.7.8,2.7,2.2M57.9,30.9c0-3.1-2.2-5-5-5s-5.2,2.1-5.2,5,2.2,5,5.5,5,3.1-.5,4-1.6l-1.5-1.6c-.7.6-1.4.9-2.4.9-1.5,0-2.5-.7-2.8-1.9h7.3c0-.2,0-.5,0-.8M52.9,28c1.3,0,2.2.8,2.4,2h-4.8c.2-1.2,1.1-2,2.4-2M68,26v1.2c-.7-.9-1.9-1.4-3.2-1.4-2.7,0-4.8,1.9-4.8,4.7s2.2,4.7,4.8,4.7,2.3-.4,3.1-1.2v.4c0,1.7-.9,2.6-2.8,2.6s-2.6-.4-3.4-1.1l-1.1,2c1.1.9,2.9,1.3,4.8,1.3,3.5,0,5.4-1.7,5.4-5.3v-8.1h-2.7ZM65.3,33c-1.5,0-2.6-1-2.6-2.4s1.1-2.4,2.6-2.4,2.5,1,2.5,2.4-1.1,2.4-2.5,2.4M76.8,27.3v-1.3h-2.7v9.7h2.8v-4.6c0-1.9,1-2.7,2.6-2.7s.4,0,.6,0v-2.6c-1.5,0-2.6.5-3.3,1.4M84.2,24.7c1,0,1.7-.7,1.7-1.6s-.7-1.5-1.7-1.5-1.7.7-1.7,1.6.7,1.6,1.7,1.6M82.8,35.7h2.8v-9.7h-2.8v9.7ZM95,25.9c-1.3,0-2.4.4-3.2,1.3v-1.1h-2.7v9.7h2.8v-4.8c0-1.8,1-2.6,2.3-2.6s2,.7,2,2.3v5.1h2.8v-5.5c0-3-1.7-4.3-4-4.3M109.6,22.4v4.7c-.7-.8-1.7-1.2-2.9-1.2-2.7,0-4.8,1.9-4.8,5s2.1,5,4.8,5,2.3-.4,3-1.3v1.1h2.7v-13.4h-2.8ZM107.2,33.6c-1.4,0-2.5-1-2.5-2.7s1.1-2.7,2.5-2.7,2.5,1,2.5,2.7-1.1,2.7-2.5,2.7"/>
      </g>
      <rect class="cls-1" y="5.4" width="4.7" height="12.6"/>
      <g class="cls-5">
        <path class="cls-7" d="M56.9,5.4v1.9h.2c.8-1.6,2.3-2.2,5.3-2.2s4.5.4,5.7,1.6c1.1,1.2,1.4,2.2,1.4,5.6v5.7h-4.7v-5.7c0-2,0-2.5-.6-2.9-.5-.5-1.4-.7-3.2-.7s-2.7.2-3.2.8c-.6.6-.7,1.2-.7,3.5v5h-4.7V5.4h4.4Z"/>
      </g>
      <rect class="cls-7" x="71.6" y="5.4" width="4.7" height="12.6"/>
      <g class="cls-8">
        <path class="cls-7" d="M95.1.3c-.8,1.5-1.5,2.9-2.3,4.4h0c0,.1,7.9.1,7.9.1v13.2h5.7V4.8h8.1l2.3-4.5h-21.6Z"/>
        <path class="cls-7" d="M86.4,14.8c-1.2,0-2.2-.1-2.8-.4-.8-.3-1-1-1-2.5,0-2.6.6-3.1,3.8-3.1s2.9,0,4.2,0c.6-1.2,1.2-2.3,1.8-3.5h-6c-4.1,0-5.7.3-6.9,1.2-1.1.9-1.4,2.2-1.4,5.1s.4,4.6,1.6,5.4c1.2.9,2.8,1.1,6.5,1.1h6.3v-3.4s-5.1-.1-6-.1"/>
      </g>
      <rect class="cls-7" x="137.7" y="5.4" width="4.7" height="12.6"/>
      <g class="cls-6">
        <path class="cls-7" d="M149,5.4v1.9h.2c.8-1.6,2.3-2.2,5.3-2.2s4.5.4,5.7,1.6c1.1,1.2,1.4,2.2,1.4,5.6v5.7h-4.7v-5.7c0-2,0-2.5-.6-2.9-.5-.5-1.4-.7-3.2-.7s-2.7.2-3.2.8c-.6.6-.7,1.2-.7,3.5v5h-4.7V5.4h4.4Z"/>
        <path class="cls-1" d="M4.7,2h0c0,1-.8,1.8-1.8,1.8h-1.2C.8,3.8,0,3,0,2S.8.3,1.8.3h1.2c1,0,1.8.8,1.8,1.8"/>
        <path class="cls-7" d="M76.3,2h0c0,1-.8,1.8-1.8,1.8h-1.2c-1,0-1.8-.8-1.8-1.8s.8-1.8,1.8-1.8h1.2c1,0,1.8.8,1.8,1.8"/>
        <path class="cls-7" d="M142.4,2h0c0,1-.8,1.8-1.8,1.8h-1.2c-1,0-1.8-.8-1.8-1.8s.8-1.8,1.8-1.8h1.2c1,0,1.8.8,1.8,1.8"/>
      </g>
      <polygon class="cls-7" points="131.7 5.4 131.7 5.4 128.6 13.9 125.4 5.4 120.9 5.4 117.8 13.9 114.7 5.4 114.7 5.4 109.7 5.4 114.4 18 120.6 18 123.2 10.6 125.6 18 132 18 136.7 5.4 131.7 5.4"/>
      <g class="cls-2">
        <path class="cls-7" d="M21.8,4.6c2.5,0,4.6,2,4.6,4.6s-2,4.6-4.6,4.6h-6.1c-2.5,0-4.6-2-4.6-4.6s2-4.6,4.6-4.6h6.1ZM21.8,0h-6.1C10.7,0,6.6,4.1,6.6,9.1s4.1,9.1,9.1,9.1h6.1c5,0,9.1-4.1,9.1-9.1S26.9,0,21.8,0"/>
        <path class="cls-1" d="M20.1,11.1h0c-.6,1.2-.2,2.6,1,3.2l6.8,3.6c1.2.6,2.6.2,3.2-1,.6-1.2.2-2.6-1-3.2l-6.8-3.6c-1.2-.6-2.6-.2-3.2,1"/>
        <path class="cls-7" d="M44.1,8.5c1.8,0,3.2,1.4,3.2,3.2s-1.4,3.2-3.2,3.2h-4.6c-1.8,0-3.2-1.4-3.2-3.2s1.4-3.2,3.2-3.2h4.6ZM44.1,5.1h-4.6c-3.6,0-6.6,3-6.6,6.6s3,6.6,6.6,6.6h4.6c3.6,0,6.6-3,6.6-6.6s-3-6.6-6.6-6.6"/>
      </g>
    </g>
  </g>
</svg>