<?xml version="1.0" encoding="UTF-8"?>
<svg xmlns="http://www.w3.org/2000/svg" version="1.1" xmlns:xlink="http://www.w3.org/1999/xlink" viewBox="0 0 161.6 39.4">
  <defs>
    <style>
      .cls-1 {
        fill: #7fb129;
      }

      .cls-2 {
        fill: #95c11f;
      }

      .cls-3 {
        fill: none;
      }

      .cls-4 {
        fill: #34393b;
      }

      .cls-5 {
        clip-path: url(#clippath);
      }
    </style>
    <clipPath id="clippath">
      <rect class="cls-3" width="161.6" height="39.4"/>
    </clipPath>
  </defs>
  <!-- Generator: Adobe Illustrator 28.7.9, SVG Export Plug-In . SVG Version: 1.2.0 Build 218)  -->
  <g>
    <g id="Ebene_1">
      <g class="cls-5">
        <path class="cls-2" d="M125,35.7h2.9v-10.2h4v-2.4h-11v2.4h4v10.2ZM112.3,33.4v-2.9h5.8v-2.3h-5.8v-2.7h6.6v-2.3h-9.5v12.6h9.8v-2.3h-6.9ZM100.8,29.9h-2.4v-4.4h2.4c1.8,0,2.7.8,2.7,2.2s-.9,2.2-2.7,2.2M101,23.1h-5.5v12.6h2.9v-3.5h2.5c3.4,0,5.5-1.7,5.5-4.6s-2.1-4.6-5.5-4.6M89.5,27.3v-1.3h-2.7v9.7h2.8v-4.6c0-1.9,1-2.7,2.6-2.7s.4,0,.6,0v-2.6c-1.5,0-2.6.5-3.3,1.4"/>
        <path class="cls-4" d="M79,28c1.3,0,2.2.8,2.4,2h-4.8c.2-1.2,1.1-2,2.4-2M84,30.9c0-3.1-2.2-5-5-5s-5.2,2.1-5.2,5,2.2,5,5.5,5,3.1-.5,4-1.6l-1.5-1.6c-.7.6-1.4.9-2.4.9-1.5,0-2.5-.7-2.8-1.9h7.3c0-.2,0-.5,0-.8M66.4,33.6c-1.4,0-2.5-1-2.5-2.7s1.1-2.7,2.5-2.7,2.5,1,2.5,2.7-1.1,2.7-2.5,2.7M66.9,25.9c-1.3,0-2.3.4-3,1.3v-1.1h-2.7v13.2h2.8v-4.5c.7.8,1.7,1.2,2.9,1.2,2.7,0,4.8-1.9,4.8-5s-2.1-5-4.8-5M56.5,26l-2.7,6.6-2.7-6.6h-2.9l4.2,9.8h0c-.4,1-.8,1.3-1.6,1.3s-1.2-.2-1.6-.6l-1,2c.6.6,1.7.9,2.7.9,1.7,0,3.1-.7,4-3l4.4-10.3h-2.7ZM42.9,23.1v5h-5.7v-5h-2.9v12.6h2.9v-5.2h5.7v5.2h2.9v-12.6h-2.9Z"/>
        <rect class="cls-1" x="-.2" y="5.4" width="4.7" height="12.6"/>
        <path class="cls-4" d="M56.7,5.4v1.9h.2c.8-1.6,2.3-2.2,5.3-2.2s4.5.4,5.7,1.6c1.1,1.2,1.4,2.2,1.4,5.6v5.7h-4.7v-5.7c0-2,0-2.5-.6-2.9-.5-.5-1.4-.7-3.2-.7s-2.7.2-3.2.8c-.6.6-.7,1.2-.7,3.5v5h-4.7V5.4h4.4Z"/>
        <rect class="cls-4" x="71.4" y="5.4" width="4.7" height="12.6"/>
        <path class="cls-4" d="M94.9.3c-.8,1.5-1.5,2.9-2.3,4.4h0c0,.1,7.9.1,7.9.1v13.2h5.7V4.8h8.1l2.3-4.5h-21.6Z"/>
        <path class="cls-4" d="M86.3,14.8c-1.2,0-2.2-.1-2.8-.4-.8-.3-1-1-1-2.5,0-2.6.6-3.1,3.8-3.1s2.9,0,4.2,0c.6-1.2,1.2-2.3,1.8-3.5h-6c-4.1,0-5.7.3-6.9,1.2-1.1.9-1.4,2.2-1.4,5.1s.4,4.6,1.6,5.4c1.2.9,2.8,1.1,6.5,1.1h6.3v-3.4s-5.1-.1-6-.1"/>
        <rect class="cls-4" x="137.6" y="5.4" width="4.7" height="12.6"/>
        <path class="cls-4" d="M148.8,5.4v1.9h.2c.8-1.6,2.3-2.2,5.3-2.2s4.5.4,5.7,1.6c1.1,1.2,1.4,2.2,1.4,5.6v5.7h-4.7v-5.7c0-2,0-2.5-.6-2.9-.5-.5-1.4-.7-3.2-.7s-2.7.2-3.2.8c-.6.6-.7,1.2-.7,3.5v5h-4.7V5.4h4.4Z"/>
        <path class="cls-1" d="M4.5,2h0c0,1-.8,1.8-1.8,1.8h-1.2C.6,3.8-.2,3-.2,2S.6.3,1.6.3h1.2c1,0,1.8.8,1.8,1.8"/>
        <path class="cls-4" d="M76.1,2h0c0,1-.8,1.8-1.8,1.8h-1.2c-1,0-1.8-.8-1.8-1.8s.8-1.8,1.8-1.8h1.2c1,0,1.8.8,1.8,1.8"/>
        <path class="cls-4" d="M142.3,2h0c0,1-.8,1.8-1.8,1.8h-1.2c-1,0-1.8-.8-1.8-1.8s.8-1.8,1.8-1.8h1.2c1,0,1.8.8,1.8,1.8"/>
        <polygon class="cls-4" points="131.5 5.4 131.5 5.4 128.4 13.9 125.2 5.4 120.7 5.4 117.6 13.9 114.5 5.4 114.5 5.4 109.5 5.4 114.2 18 120.5 18 123 10.6 125.5 18 131.9 18 136.5 5.4 131.5 5.4"/>
        <path class="cls-4" d="M21.7,0h-6.1C10.5,0,6.5,4.1,6.5,9.1s4.1,9.1,9.1,9.1h6.1c5,0,9.1-4.1,9.1-9.1S26.7,0,21.7,0M21.7,4.6c2.5,0,4.6,2,4.6,4.6s-2,4.6-4.6,4.6h-6.1c-2.5,0-4.6-2-4.6-4.6s2-4.6,4.6-4.6h6.1Z"/>
        <path class="cls-1" d="M19.9,11.1h0c-.6,1.2-.2,2.6,1,3.2l6.8,3.6c1.2.6,2.6.2,3.2-1,.6-1.2.2-2.6-1-3.2l-6.8-3.6c-1.2-.6-2.6-.2-3.2,1"/>
        <path class="cls-4" d="M43.9,5.1h-4.6c-3.6,0-6.6,3-6.6,6.6s3,6.6,6.6,6.6h4.6c3.6,0,6.6-3,6.6-6.6s-3-6.6-6.6-6.6M43.9,8.5c1.8,0,3.2,1.4,3.2,3.2s-1.4,3.2-3.2,3.2h-4.6c-1.8,0-3.2-1.4-3.2-3.2s1.4-3.2,3.2-3.2h4.6Z"/>
      </g>
    </g>
  </g>
</svg>