<?xml version="1.0" encoding="UTF-8"?>
<svg xmlns="http://www.w3.org/2000/svg" version="1.1" xmlns:xlink="http://www.w3.org/1999/xlink" viewBox="0 0 57.4 29.7">
  <defs>
    <style>
      .cls-1 {
        fill: #7fb129;
      }

      .cls-2 {
        fill: #95c11f;
      }

      .cls-3 {
        fill: none;
      }

      .cls-4 {
        clip-path: url(#clippath-1);
      }

      .cls-5 {
        fill: #34393b;
      }

      .cls-6 {
        clip-path: url(#clippath);
      }
    </style>
    <clipPath id="clippath">
      <rect class="cls-3" x="1.4" y="0" width="54.2" height="29.7"/>
    </clipPath>
    <clipPath id="clippath-1">
      <rect class="cls-3" x="1.4" y="0" width="54.2" height="29.7"/>
    </clipPath>
  </defs>
  <!-- Generator: Adobe Illustrator 28.7.9, SVG Export Plug-In . SVG Version: 1.2.0 Build 218)  -->
  <g>
    <g id="Ebene_1">
      <g class="cls-6">
        <path class="cls-2" d="M51.8,27.7h1.6v-5.7h2.2v-1.3h-6.1v1.3h2.2v5.7ZM44.7,26.4v-1.6h3.2v-1.3h-3.2v-1.5h3.7v-1.3h-5.3v7h5.4v-1.3h-3.8ZM38.3,24.4h-1.3v-2.4h1.3c1,0,1.5.4,1.5,1.2s-.5,1.2-1.5,1.2M38.4,20.7h-3v7h1.6v-1.9h1.4c1.9,0,3-1,3-2.5s-1.2-2.5-3-2.5M32,23v-.7h-1.5v5.4h1.6v-2.5c0-1,.6-1.5,1.4-1.5s.2,0,.3,0v-1.4c-.8,0-1.5.3-1.8.8"/>
        <path class="cls-5" d="M26.2,23.4c.7,0,1.2.4,1.3,1.1h-2.7c.1-.7.6-1.1,1.3-1.1M29,25c0-1.7-1.2-2.8-2.8-2.8s-2.9,1.2-2.9,2.8,1.2,2.8,3.1,2.8,1.7-.3,2.2-.9l-.8-.9c-.4.4-.8.5-1.3.5-.8,0-1.4-.4-1.5-1.1h4.1c0-.1,0-.3,0-.4M19.2,26.5c-.8,0-1.4-.6-1.4-1.5s.6-1.5,1.4-1.5,1.4.6,1.4,1.5-.6,1.5-1.4,1.5M19.5,22.2c-.7,0-1.3.2-1.7.7v-.6h-1.5v7.3h1.6v-2.5c.4.4,1,.7,1.6.7,1.5,0,2.7-1.1,2.7-2.8s-1.2-2.8-2.7-2.8M13.7,22.3l-1.5,3.6-1.5-3.6h-1.6l2.3,5.4h0c-.2.5-.4.7-.9.7s-.6-.1-.9-.3l-.6,1.1c.4.3.9.5,1.5.5,1,0,1.7-.4,2.2-1.7l2.4-5.7h-1.5ZM6.2,20.7v2.8h-3.2v-2.8h-1.6v7h1.6v-2.9h3.2v2.9h1.6v-7h-1.6Z"/>
      </g>
      <rect class="cls-1" x="11.7" y="5.4" width="4.7" height="12.6"/>
      <g class="cls-4">
        <path class="cls-1" d="M16.4,2h0c0,1-.8,1.8-1.8,1.8h-1.2c-1,0-1.8-.8-1.8-1.8s.8-1.8,1.8-1.8h1.2c1,0,1.8.8,1.8,1.8"/>
        <path class="cls-5" d="M33.6,0h-6.1C22.4,0,18.3,4.1,18.3,9.1s4.1,9.1,9.1,9.1h6.1c5,0,9.1-4.1,9.1-9.1S38.6,0,33.6,0M33.6,4.6c2.5,0,4.6,2,4.6,4.6s-2,4.6-4.6,4.6h-6.1c-2.5,0-4.6-2-4.6-4.6s2-4.6,4.6-4.6h6.1Z"/>
        <path class="cls-1" d="M31.8,11.1h0c-.6,1.2-.2,2.6,1,3.2l6.8,3.6c1.2.6,2.6.2,3.2-1,.6-1.2.2-2.6-1-3.2l-6.8-3.6c-1.2-.6-2.6-.2-3.2,1"/>
      </g>
    </g>
  </g>
</svg>