<?xml version="1.0" encoding="UTF-8"?>
<svg xmlns="http://www.w3.org/2000/svg" version="1.1" xmlns:xlink="http://www.w3.org/1999/xlink" viewBox="0 0 161.6 35.7">
  <defs>
    <style>
      .cls-1 {
        fill: #7fb129;
      }

      .cls-2 {
        fill: #bbd034;
      }

      .cls-3 {
        fill: none;
      }

      .cls-4 {
        fill: #34393b;
      }

      .cls-5 {
        clip-path: url(#clippath);
      }
    </style>
    <clipPath id="clippath">
      <rect class="cls-3" y="0" width="161.6" height="35.7"/>
    </clipPath>
  </defs>
  <!-- Generator: Adobe Illustrator 28.7.9, SVG Export Plug-In . SVG Version: 1.2.0 Build 218)  -->
  <g>
    <g id="Ebene_1">
      <rect class="cls-1" y="5.4" width="4.7" height="12.6"/>
      <g class="cls-5">
        <path class="cls-4" d="M56.9,5.4v1.9h.2c.8-1.6,2.3-2.2,5.3-2.2s4.5.4,5.7,1.6c1.1,1.2,1.4,2.2,1.4,5.6v5.7h-4.7v-5.7c0-2,0-2.5-.6-2.9-.5-.5-1.4-.7-3.2-.7s-2.7.2-3.2.8c-.6.6-.7,1.2-.7,3.5v5h-4.7V5.4h4.4Z"/>
        <rect class="cls-4" x="71.6" y="5.4" width="4.7" height="12.6"/>
        <path class="cls-4" d="M95.1.3c-.8,1.5-1.5,2.9-2.3,4.4h0c0,.1,7.9.1,7.9.1v13.2h5.7V4.8h8.1l2.3-4.5h-21.6Z"/>
        <path class="cls-4" d="M86.4,14.8c-1.2,0-2.2-.1-2.8-.4-.8-.3-1-1-1-2.5,0-2.6.6-3.1,3.8-3.1s2.9,0,4.2,0c.6-1.2,1.2-2.3,1.8-3.5h-6c-4.1,0-5.7.3-6.9,1.2-1.1.9-1.4,2.2-1.4,5.1s.4,4.6,1.6,5.4c1.2.9,2.8,1.1,6.5,1.1h6.3v-3.4s-5.1-.1-6-.1"/>
        <rect class="cls-4" x="137.7" y="5.4" width="4.7" height="12.6"/>
        <path class="cls-4" d="M149,5.4v1.9h.2c.8-1.6,2.3-2.2,5.3-2.2s4.5.4,5.7,1.6c1.1,1.2,1.4,2.2,1.4,5.6v5.7h-4.7v-5.7c0-2,0-2.5-.6-2.9-.5-.5-1.4-.7-3.2-.7s-2.7.2-3.2.8c-.6.6-.7,1.2-.7,3.5v5h-4.7V5.4h4.4Z"/>
        <path class="cls-1" d="M4.7,2h0c0,1-.8,1.8-1.8,1.8h-1.2C.8,3.8,0,3,0,2S.8.3,1.8.3h1.2c1,0,1.8.8,1.8,1.8"/>
        <path class="cls-4" d="M76.3,2h0c0,1-.8,1.8-1.8,1.8h-1.2c-1,0-1.8-.8-1.8-1.8s.8-1.8,1.8-1.8h1.2c1,0,1.8.8,1.8,1.8"/>
        <path class="cls-4" d="M142.4,2h0c0,1-.8,1.8-1.8,1.8h-1.2c-1,0-1.8-.8-1.8-1.8s.8-1.8,1.8-1.8h1.2c1,0,1.8.8,1.8,1.8"/>
        <polygon class="cls-4" points="131.7 5.4 131.7 5.4 128.6 13.9 125.4 5.4 120.9 5.4 117.8 13.9 114.7 5.4 114.7 5.4 109.7 5.4 114.4 18 120.6 18 123.2 10.6 125.6 18 132 18 136.7 5.4 131.7 5.4"/>
        <path class="cls-4" d="M21.8,4.6c2.5,0,4.6,2,4.6,4.6s-2,4.6-4.6,4.6h-6.1c-2.5,0-4.6-2-4.6-4.6s2-4.6,4.6-4.6h6.1ZM21.8,0h-6.1C10.7,0,6.6,4.1,6.6,9.1s4.1,9.1,9.1,9.1h6.1c5,0,9.1-4.1,9.1-9.1S26.9,0,21.8,0"/>
        <path class="cls-1" d="M20.1,11.1h0c-.6,1.2-.2,2.6,1,3.2l6.8,3.6c1.2.6,2.6.2,3.2-1,.6-1.2.2-2.6-1-3.2l-6.8-3.6c-1.2-.6-2.6-.2-3.2,1"/>
        <path class="cls-4" d="M44.1,8.5c1.8,0,3.2,1.4,3.2,3.2s-1.4,3.2-3.2,3.2h-4.6c-1.8,0-3.2-1.4-3.2-3.2s1.4-3.2,3.2-3.2h4.6ZM44.1,5.1h-4.6c-3.6,0-6.6,3-6.6,6.6s3,6.6,6.6,6.6h4.6c3.6,0,6.6-3,6.6-6.6s-3-6.6-6.6-6.6"/>
        <path class="cls-2" d="M158.3,27.1v-1.3h-2.7v9.7h2.8v-4.6c0-1.9,1-2.7,2.6-2.7s.4,0,.6,0v-2.6c-1.5,0-2.6.5-3.3,1.4"/>
        <path class="cls-2" d="M145.7,29.9c.2-1.2,1.1-2,2.4-2s2.2.8,2.4,2h-4.8ZM153.1,30.7c0-3.1-2.2-5-5-5s-5.2,2.1-5.2,5,2.2,5,5.5,5,3.1-.5,4-1.6l-1.5-1.6c-.7.6-1.4.9-2.4.9-1.5,0-2.5-.7-2.8-1.9h7.3c0-.2,0-.5,0-.8"/>
        <rect class="cls-2" x="137.2" y="25.9" width="2.8" height="9.7"/>
        <path class="cls-2" d="M138.6,24.5c1,0,1.7-.7,1.7-1.6s-.7-1.5-1.7-1.5-1.7.7-1.7,1.6.7,1.6,1.7,1.6"/>
        <path class="cls-2" d="M131.2,25.7c0-1,.4-1.4,1.3-1.4s.8.1,1.1.3l.7-2c-.5-.4-1.4-.5-2.1-.5-2.4,0-3.7,1.4-3.7,3.6v.4h-1.5v2.2h1.5v7.3h2.8v-7.3h2.4v-2.2h-2.5v-.4Z"/>
        <rect class="cls-2" x="121.2" y="25.9" width="2.8" height="9.7"/>
        <path class="cls-2" d="M122.7,24.5c1,0,1.7-.7,1.7-1.6s-.7-1.5-1.7-1.5-1.7.7-1.7,1.6.7,1.6,1.7,1.6"/>
        <path class="cls-2" d="M113.8,35.7c2.9,0,4.6-1.3,4.6-3.1,0-3.8-5.9-2.2-5.9-3.9s.5-.9,1.8-.9,1.8.2,2.8.7l.9-2c-.9-.5-2.4-.8-3.7-.8-2.8,0-4.5,1.3-4.5,3.1,0,3.9,5.9,2.2,5.9,3.8s-.5.9-1.8.9-2.5-.4-3.4-.9l-.9,2c.9.6,2.6,1,4.2,1"/>
        <path class="cls-2" d="M103.1,25.7c-1.3,0-2.4.5-3.2,1.3v-1.1h-2.7v9.7h2.8v-4.8c0-1.8,1-2.6,2.3-2.6s2,.7,2,2.3v5.1h2.8v-5.5c0-3-1.7-4.3-4-4.3"/>
        <path class="cls-2" d="M87.2,29.9c.2-1.2,1.1-2,2.4-2s2.2.8,2.4,2h-4.8ZM94.6,30.7c0-3.1-2.2-5-5-5s-5.2,2.1-5.2,5,2.2,5,5.5,5,3.1-.5,4-1.6l-1.5-1.6c-.7.6-1.4.9-2.4.9-1.5,0-2.5-.7-2.8-1.9h7.3c0-.2,0-.5,0-.8"/>
        <path class="cls-2" d="M74.8,33.2h-2.7v-7.8h2.7c2.5,0,4.1,1.5,4.1,3.9s-1.6,3.9-4.1,3.9M74.9,23h-5.7v12.6h5.7c4.1,0,6.9-2.5,6.9-6.3s-2.8-6.3-6.9-6.3"/>
        <path class="cls-2" d="M59.3,29.9c.2-1.2,1.1-2,2.4-2s2.2.8,2.4,2h-4.8ZM66.7,30.7c0-3.1-2.2-5-5-5s-5.2,2.1-5.2,5,2.2,5,5.5,5,3.1-.5,4-1.6l-1.5-1.6c-.7.6-1.4.9-2.4.9-1.5,0-2.5-.7-2.8-1.9h7.3c0-.2,0-.5,0-.8"/>
        <path class="cls-2" d="M50.6,27.1v-1.3h-2.7v9.7h2.8v-4.6c0-1.9,1-2.7,2.6-2.7s.4,0,.6,0v-2.6c-1.5,0-2.6.5-3.3,1.4"/>
        <path class="cls-2" d="M39.8,29.7h-2.4v-4.4h2.4c1.8,0,2.7.8,2.7,2.2s-.9,2.2-2.7,2.2M39.9,23h-5.5v12.6h2.9v-3.5h2.5c3.4,0,5.5-1.7,5.5-4.6s-2.1-4.6-5.5-4.6"/>
      </g>
    </g>
  </g>
</svg>