<?xml version="1.0" encoding="UTF-8"?>
<svg xmlns="http://www.w3.org/2000/svg" version="1.1" xmlns:xlink="http://www.w3.org/1999/xlink" viewBox="0 0 70.3 27.7">
  <defs>
    <style>
      .cls-1 {
        fill: #7fb129;
      }

      .cls-2 {
        fill: #bbd034;
      }

      .cls-3 {
        fill: none;
      }

      .cls-4 {
        clip-path: url(#clippath-1);
      }

      .cls-5 {
        fill: #34393b;
      }

      .cls-6 {
        clip-path: url(#clippath);
      }
    </style>
    <clipPath id="clippath">
      <rect class="cls-3" width="70.3" height="27.7"/>
    </clipPath>
    <clipPath id="clippath-1">
      <rect class="cls-3" width="70.3" height="27.7"/>
    </clipPath>
  </defs>
  <!-- Generator: Adobe Illustrator 28.7.9, SVG Export Plug-In . SVG Version: 1.2.0 Build 218)  -->
  <g>
    <g id="Ebene_1">
      <g class="cls-6">
        <path class="cls-2" d="M68.4,23v-.7h-1.5v5.4h1.6v-2.5c0-1,.6-1.5,1.4-1.5s.2,0,.3,0v-1.4c-.8,0-1.5.3-1.8.8M62.6,23.4c.7,0,1.2.4,1.3,1.1h-2.6c.1-.7.6-1.1,1.3-1.1M65.4,25c0-1.7-1.2-2.8-2.8-2.8s-2.9,1.2-2.9,2.8,1.2,2.8,3.1,2.8,1.7-.3,2.2-.9l-.8-.9c-.4.4-.8.5-1.3.5-.8,0-1.4-.4-1.5-1.1h4.1c0-.1,0-.3,0-.4M56.6,27.7h1.6v-5.4h-1.6v5.4ZM57.4,21.5c.6,0,1-.4,1-.9s-.4-.8-1-.8-1,.4-1,.9.4.9,1,.9M53.1,22.2c0-.5.2-.8.7-.8s.5,0,.6.2l.4-1.1c-.3-.2-.8-.3-1.2-.3-1.3,0-2.1.8-2.1,2v.2h-.8v1.2h.8v4.1h1.6v-4.1h1.3v-1.2h-1.4v-.2ZM47.9,27.7h1.6v-5.4h-1.6v5.4ZM48.7,21.5c.6,0,1-.4,1-.9s-.4-.8-1-.8-1,.4-1,.9.4.9,1,.9M43.9,27.7c1.6,0,2.5-.7,2.5-1.7,0-2.1-3.2-1.2-3.2-2.1s.3-.5,1-.5,1,0,1.6.4l.5-1.1c-.5-.3-1.3-.5-2.1-.5-1.6,0-2.5.7-2.5,1.7,0,2.1,3.2,1.2,3.2,2.1s-.3.5-1,.5-1.4-.2-1.9-.5l-.5,1.1c.5.3,1.4.6,2.3.6M38,22.2c-.7,0-1.4.2-1.8.7v-.6h-1.5v5.4h1.6v-2.7c0-1,.5-1.5,1.3-1.5s1.1.4,1.1,1.3v2.8h1.6v-3.1c0-1.6-1-2.4-2.2-2.4M30.4,23.4c.7,0,1.2.4,1.3,1.1h-2.6c.1-.7.6-1.1,1.3-1.1M33.2,25c0-1.7-1.2-2.8-2.8-2.8s-2.9,1.2-2.9,2.8,1.2,2.8,3.1,2.8,1.7-.3,2.2-.9l-.8-.9c-.4.4-.8.5-1.4.5-.8,0-1.4-.4-1.5-1.1h4.1c0-.1,0-.3,0-.4M20.9,26.3v-4.3h1.5c1.4,0,2.3.8,2.3,2.2s-.9,2.2-2.3,2.2h-1.5ZM19.3,27.7h3.2c2.3,0,3.9-1.4,3.9-3.5s-1.6-3.5-3.9-3.5h-3.2v7ZM14.8,23.4c.7,0,1.2.4,1.3,1.1h-2.7c.1-.7.6-1.1,1.3-1.1M17.6,25c0-1.7-1.2-2.8-2.8-2.8s-2.9,1.2-2.9,2.8,1.2,2.8,3.1,2.8,1.7-.3,2.2-.9l-.8-.9c-.4.4-.8.5-1.3.5-.8,0-1.4-.4-1.5-1.1h4.1c0-.1,0-.3,0-.4M9.1,23v-.7h-1.5v5.4h1.6v-2.5c0-1,.6-1.5,1.4-1.5s.2,0,.4,0v-1.4c-.8,0-1.5.3-1.9.8M2.9,24.4h-1.3v-2.4h1.3c1,0,1.5.4,1.5,1.2s-.5,1.2-1.5,1.2M3,20.7H0v7h1.6v-1.9h1.4c1.9,0,3-1,3-2.5s-1.2-2.5-3-2.5"/>
      </g>
      <rect class="cls-1" x="18.4" y="5.4" width="4.7" height="12.6"/>
      <g class="cls-4">
        <path class="cls-1" d="M23.1,2h0c0,1-.8,1.8-1.8,1.8h-1.2c-1,0-1.8-.8-1.8-1.8s.8-1.8,1.8-1.8h1.2c1,0,1.8.8,1.8,1.8"/>
        <path class="cls-5" d="M40.3,0h-6.1C29.2,0,25.1,4.1,25.1,9.1s4.1,9.1,9.1,9.1h6.1c5,0,9.1-4.1,9.1-9.1S45.3,0,40.3,0M40.3,4.6c2.5,0,4.6,2,4.6,4.6s-2,4.6-4.6,4.6h-6.1c-2.5,0-4.6-2-4.6-4.6s2-4.6,4.6-4.6h6.1Z"/>
        <path class="cls-1" d="M38.6,11.1h0c-.6,1.2-.2,2.6,1,3.2l6.8,3.6c1.2.6,2.6.2,3.2-1,.6-1.2.2-2.6-1-3.2l-6.8-3.6c-1.2-.6-2.6-.2-3.2,1"/>
      </g>
    </g>
  </g>
</svg>