<?xml version="1.0" encoding="UTF-8"?>
<svg xmlns="http://www.w3.org/2000/svg" version="1.1" xmlns:xlink="http://www.w3.org/1999/xlink" viewBox="0 0 80.4 19.7">
  <defs>
    <style>
      .cls-1 {
        fill: #7fb129;
      }

      .cls-2 {
        fill: #7eaa24;
      }

      .cls-3 {
        fill: none;
      }

      .cls-4 {
        clip-path: url(#clippath-1);
      }

      .cls-5 {
        fill: #34393b;
      }

      .cls-6 {
        clip-path: url(#clippath);
      }
    </style>
    <clipPath id="clippath">
      <rect class="cls-3" y="0" width="80.4" height="19.7"/>
    </clipPath>
    <clipPath id="clippath-1">
      <rect class="cls-3" y="0" width="80.4" height="19.7"/>
    </clipPath>
  </defs>
  <!-- Generator: Adobe Illustrator 28.7.9, SVG Export Plug-In . SVG Version: 1.2.0 Build 218)  -->
  <g>
    <g id="Ebene_1">
      <g class="cls-6">
        <path class="cls-2" d="M77.5,16.5c-.8,0-1.4-.6-1.4-1.5s.6-1.5,1.4-1.5,1.4.6,1.4,1.5-.6,1.5-1.4,1.5M78.8,10.3v2.6c-.4-.4-1-.7-1.6-.7-1.5,0-2.7,1.1-2.7,2.8s1.2,2.8,2.7,2.8,1.3-.2,1.7-.7v.6h1.5v-7.4h-1.6ZM70.7,12.3c-.7,0-1.4.2-1.8.7v-.6h-1.5v5.4h1.6v-2.7c0-1,.5-1.5,1.3-1.5s1.1.4,1.1,1.3v2.8h1.6v-3.1c0-1.6-1-2.4-2.2-2.4M63.9,17.7h1.6v-5.4h-1.6v5.4ZM64.7,11.6c.6,0,1-.4,1-.9s-.4-.8-1-.8-1,.4-1,.9.4.9,1,.9M60.6,13.1v-.7h-1.5v5.4h1.6v-2.5c0-1,.6-1.5,1.4-1.5s.2,0,.3,0v-1.4c-.8,0-1.5.3-1.8.8M54.2,16.2c-.8,0-1.4-.5-1.4-1.3s.6-1.3,1.4-1.3,1.4.5,1.4,1.3-.6,1.3-1.4,1.3M55.7,12.4v.7c-.4-.5-1-.8-1.8-.8-1.5,0-2.7,1-2.7,2.6s1.2,2.6,2.7,2.6,1.3-.2,1.7-.7v.2c0,1-.5,1.5-1.6,1.5s-1.4-.2-1.9-.6l-.6,1.1c.6.5,1.6.7,2.6.7,1.9,0,3-.9,3-2.9v-4.5h-1.5ZM47.3,13.4c.7,0,1.2.4,1.3,1.1h-2.6c.1-.7.6-1.1,1.3-1.1M50.1,15.1c0-1.7-1.2-2.8-2.8-2.8s-2.9,1.2-2.9,2.8,1.2,2.8,3.1,2.8,1.7-.3,2.2-.9l-.8-.9c-.4.3-.8.5-1.3.5-.8,0-1.4-.4-1.5-1.1h4.1c0-.1,0-.3,0-.4M41.5,13.3c0,.8-.5,1.2-1.5,1.2h-1.3v-2.4h1.3c1,0,1.5.4,1.5,1.2M43.3,17.7l-1.6-2.2c.9-.4,1.4-1.2,1.4-2.2,0-1.6-1.2-2.5-3-2.5h-3v7h1.6v-2h1.5l1.3,2h1.7Z"/>
      </g>
      <rect class="cls-1" y="5.4" width="4.7" height="12.6"/>
      <g class="cls-4">
        <path class="cls-1" d="M4.7,2h0c0,1-.8,1.8-1.8,1.8h-1.2C.8,3.8,0,3,0,2S.8.3,1.8.3h1.2c1,0,1.8.8,1.8,1.8"/>
        <path class="cls-5" d="M21.8,0h-6.1C10.7,0,6.6,4.1,6.6,9.1s4.1,9.1,9.1,9.1h6.1c5,0,9.1-4.1,9.1-9.1S26.9,0,21.8,0M21.8,4.6c2.5,0,4.6,2,4.6,4.6s-2,4.6-4.6,4.6h-6.1c-2.5,0-4.6-2-4.6-4.6s2-4.6,4.6-4.6h6.1Z"/>
        <path class="cls-1" d="M20.1,11.1h0c-.6,1.2-.2,2.6,1,3.2l6.8,3.6c1.2.6,2.6.2,3.2-1,.6-1.2.2-2.6-1-3.2l-6.8-3.6c-1.2-.6-2.6-.2-3.2,1"/>
      </g>
    </g>
  </g>
</svg>