<?xml version="1.0" encoding="UTF-8"?>
<svg id="Layer_1" xmlns="http://www.w3.org/2000/svg" version="1.1" viewBox="0 0 3819.3 1132.3">
  <!-- Generator: Adobe Illustrator 29.8.3, SVG Export Plug-In . SVG Version: 2.1.1 Build 3)  -->
  <defs>
    <style>
      .st0 {
        fill: #7bb542;
      }

      .st1 {
        fill: #092a3c;
      }
    </style>
  </defs>
  <g>
    <g>
      <path class="st0" d="M3318.9,243.5c-175.2,0-318.7,142.9-319.5,318.7-1,175.6,142.6,319.7,318.9,320.2,175.9.3,319.2-141.8,319.9-317.6.8-176.8-142.7-321.2-319.3-321.2h0ZM3246.4,757.5c-106.7.1-193.2-86.2-193.4-192.9-.2-106.7,86.1-193.7,192.3-194,106.9-.3,194.7,87.3,194.6,193.7-.2,106.3-87.3,193.2-193.5,193.2h0Z"/>
      <path class="st0" d="M3244.5,419c-80.3.9-144.8,66.5-143.9,146.6.9,80,67.1,144.8,147.2,143.6,81.8-1.2,144.8-66.7,143.6-149.3-1.2-78.2-67.5-141.7-146.8-140.9h0Z"/>
      <path class="st0" d="M3817.4,521c0-.9-.2-1.8-.3-2.7,0-.3,0-.6,0-1-22.9-232-218.6-413.3-456.6-413.4h-1.1c-1.1,0-2.2,0-3.3,0-.6,0-1.1,0-1.6,0-3.8,0-7.7.1-11.5.3,0,0-.2,0-.3,0-5.9.2-11.7.5-17.6,1-1.9.1-3.9.3-5.8.5-.2,0-.4,0-.6,0-1.7.2-3.5.3-5.2.5-2.9.3-5.8.6-8.7,1-3.4.4-6.8.9-10.2,1.4-1.6.2-3.2.5-4.8.8-1.7.3-3.4.6-5,.8-33.9,5.6-66.6,14.9-97.6,27.6-31,12.6-60.3,28.6-87.5,47.3-1.7,1.1-3.4,2.3-5,3.5-.3.2-.6.4-.9.6-1.2.8-2.4,1.7-3.6,2.6-90.7,65.4-154,161.3-178.2,270.7-6.9,31.2-10.6,63.6-10.9,96.6-.2,27.5,2,55.5,6.7,83.8h0c.3,2,.6,3.8,1,5.7.3,1.5.6,2.9.8,4.4.1.7.3,1.4.4,2.1.6,3.1,1.2,6.2,1.9,9.3.5,2.2,1,4.4,1.5,6.6.4,1.7.8,3.3,1.2,5,.4,1.6.8,3.2,1.2,4.8.5,2,1,3.9,1.5,5.9.4,1.5.8,2.9,1.2,4.4.6,2.1,1.2,4.2,1.8,6.3.4,1.3.8,2.5,1.2,3.8.4,1.4.9,2.8,1.3,4.2.3.9.6,1.8.9,2.7.4,1.1.7,2.2,1.1,3.3.4,1.2.8,2.3,1.2,3.5.4,1.1.8,2.2,1.2,3.3.5,1.3.9,2.7,1.4,4,.7,2,1.4,3.9,2.2,5.8.6,1.6,1.2,3.1,1.8,4.7.2.6.4,1.2.7,1.7.4,1,.9,2.1,1.3,3.1.8,1.8,1.5,3.7,2.3,5.6.2.5.4,1,.6,1.4.4,1.1.9,2.2,1.4,3.2.8,1.8,1.5,3.5,2.4,5.3.2.5.4,1.1.7,1.6.8,1.7,1.5,3.3,2.3,5,.2.5.5,1,.8,1.5l.6,1.2c.4.8.7,1.5,1.1,2.2.8,1.7,1.6,3.3,2.4,4.9.3.5.6,1,.8,1.6.2.5.4.9.7,1.4.3.7.7,1.3,1,2,.8,1.6,1.7,3.2,2.5,4.8.3.5.6,1.1.9,1.6.6,1.1,1.2,2.2,1.8,3.3.9,1.5,1.7,3.1,2.6,4.6.2.5.5.9.8,1.3,1,1.7,2,3.4,3,5.1.6,1,1.1,2,1.7,3,.2.3.4.6.6,1,1.1,1.8,2.2,3.6,3.3,5.4.6,1,1.2,1.9,1.8,2.9.3.5.6,1,.9,1.5.7,1.1,1.4,2.1,2.1,3.2.6.9,1.2,1.9,1.8,2.8.5.8,1,1.6,1.6,2.4.1.2.3.4.4.6,1.4,2,2.8,4,4.1,6,.2.3.4.7.7,1,.2.3.4.7.7,1,0,.1.2.2.3.4,1.5,2.1,3,4.2,4.6,6.4.3.5.6.9,1,1.4,0,.1.2.3.3.4.2.3.5.7.8,1,1.6,2.2,3.3,4.3,4.9,6.5.2.3.4.6.7.9,0,0,.1.2.2.2.2.2.4.5.6.7,1.4,1.8,2.9,3.7,4.4,5.5.3.4.6.8.9,1.2.4.5.7.9,1.1,1.3,0,0,0,0,.1.1,2,2.5,4.1,5,6.2,7.4,0,0,.2.2.2.3,0,0,.1.1.2.2,2.1,2.5,4.3,5,6.5,7.4.2.2.3.3.5.5.1.1.2.3.4.4,2.1,2.3,4.2,4.6,6.3,6.8.2.2.4.4.6.7,0,0,0,0,0,0,.1.1.2.2.3.4,2.2,2.3,4.4,4.7,6.7,7,.1.1.3.3.4.4.1.1.2.3.4.4,2,2,4.1,4.1,6.1,6.1.3.3.6.7,1,1,.1,0,.2.2.3.3.4.4.9.8,1.3,1.2,1.9,1.8,3.8,3.7,5.8,5.5.2.2.4.4.6.6.2.2.4.4.6.6,2,1.8,4,3.7,6.1,5.5.3.2.5.5.8.7.2.2.4.4.6.5,2.6,2.3,5.2,4.5,7.8,6.7.2.1.3.2.4.4.3.3.6.5.9.8,9.5,8,19.3,15.6,29.5,22.8,1.9,1.4,3.9,2.7,5.8,4.1,1.9,1.3,3.8,2.6,5.7,3.9,2,1.3,4,2.7,6,3.9,2,1.3,4,2.6,6,3.8.2,0,.3.2.4.3.4.2.8.5,1.2.8,1.2.8,2.4,1.5,3.6,2.2,0,0,.2.1.3.2.6.4,1.3.8,1.9,1.2,1.9,1.2,3.8,2.3,5.7,3.4,2.9,1.7,5.7,3.3,8.6,4.9,3.6,2,7.2,3.9,10.9,5.8,10.9,5.7,22.2,10.9,33.6,15.7h0c6,2.6,12.1,5,18.3,7.2,0,0,0,0,0,0,1.5.6,3.1,1.1,4.6,1.6,1.2.4,2.4.9,3.6,1.3,2,.7,4,1.3,5.9,2,2,.7,3.9,1.4,5.9,2,2.5.8,5,1.6,7.5,2.3,1.9.6,3.9,1.2,5.8,1.7,3.6,1,7.2,2,10.8,2.9,1.8.5,3.7.9,5.5,1.4,2.1.5,4.2,1,6.3,1.5,7.3,1.7,14.7,3.2,22.1,4.5,3.7.7,7.4,1.3,11.2,1.9,7.5,1.1,15,2.1,22.6,2.9,11.3,1.2,22.8,1.9,34.3,2.1,2.3,0,4.6,0,6.8.1,2,0,4,0,5.9,0h2.4c1.5,0,3.1,0,4.6,0,233.1-3.5,424.1-180.7,449.2-407.9,0-.4.1-.9.2-1.3,0-.2,0-.4,0-.5.3-2.4.5-4.8.7-7.2,1.3-13.8,1.9-27.9,1.9-42s-.6-28.2-1.9-42h0ZM3318.5,937.4c-206.5-.3-374.1-168.2-374-374.4,0-207.1,168.8-374.6,376.9-374.2,204.8.4,372.1,169.2,371.7,375.2-.4,206.6-168.2,373.8-374.6,373.5h0Z"/>
    </g>
    <path class="st0" d="M3007.3,1120.7c-11.5,13.7-31.9,15.5-45.6,4-5.9-4.3-11.9-9.1-18-14.3-67.3-52.1-107.2-106.2-126.8-133.2-97.2-134-143-284.3-133.8-449.5,11.7-212,103.3-384.3,268-518,17.2-14.1,37.4-12.7,49.5,2.6s8.3,35.3-9.5,49.7c-119.6,95.6-199.8,217.1-228.7,367.6-48,250.1,26.2,459.7,219.1,626.9,2.3,1.9,4.6,3.8,7,5.7,1.7,1.4,3.6,3,5.5,4.9h0s9.4,7.9,9.4,7.9c13.7,11.5,15.5,31.9,4,45.6Z"/>
  </g>
  <g>
    <path class="st1" d="M1029.3,673.2c-.7-135.7-.2-400.6-.1-425.3,0-1-.8-1.9-1.8-1.9h-296.9c0,0-.1,0-.2,0-7.1,4.2-10.1,11.7-13.8,18.4-18.4,34.8-37.4,69.3-55.9,103.9-45.4,85.1-91.7,169.7-137,254.9-2.6,4.9-4.7,10.6-9.4,13.9-.1,0-.3,0-.4,0-1.3-.9-1.9-1.5-2.3-2.2-62.4-115.8-124.8-231.4-187.1-347.1-7.7-14.3-12.4-30.5-25.2-41.7,0,0-.1,0-.2,0-96.1,0-192.2.2-288.3-.2C1.8,245.8,0,247.6,0,256.4c.3,209.4.2,419.9.2,629.3s.1.3.3.3c6.8.4,119.8.2,171.1,0,11.3,0,14.3-2.4,14.2-14.1-.4-139.3-.3-278.7-.3-418v-12.5c0-.3.3-.4.6-.3,3.8,2.6,5.5,5.4,7,8.2,82,141.1,164,282.3,245.7,423.6,4.8,8.1,9.5,11.2,19.2,11.3,36.8.3,73.6.3,110.3.1,10.8,0,16.8-2.9,22.4-12.6,80.7-139.9,161.9-279.6,243-419.2,1.8-3.2,3.8-6.4,6.9-11.6.1,0,.1-.1.1-.1.4-.6.9-1.3,1.3-2,.2-.3.6-.2.6.2v16.8c0,138.9.1,277.8-.2,416.8,0,10.8,2.9,13.4,13.6,13.4,21,0,42.3,0,63.6.1,9.9,0,14.4-3.5,18.7-11.7,24.4-45.7,48.6-91.5,74.4-136.4,11.9-20.6,16.7-41,16.6-64.9h0Z"/>
    <path class="st1" d="M2289.2,886.6c51,0,102.1.7,152.6-9.4,65.5-13.1,101-49.5,112.8-115.4,6.7-36.9,6.4-74,2.5-111.1-7.7-73.1-44.3-117.2-114.9-136.8-50-13.9-101.5-16.5-152.9-18.2-93.4-3-187-5.3-280.4-8-21.6-.7-36.8-13-42.1-33.7h0c-9.5-37.6,12.7-66.8,51.5-66.8,29.9,0,59.8,0,89.8,0,109.5,0,219,0,328.5.1,8.9,0,13.6-2.5,17.9-10.6,22.5-43.8,45.7-87.2,68.8-130.6h-366.1l-197.2-.3s-80.6-6.3-139.7,48.5c-21.8,18.7-37.1,44.2-44.7,77.6-10.9,48.2-11.9,97-2.7,145.5,10.4,54.7,41.6,92,95.5,109,18.2,5.7,36.7,9.5,55.6,11.9,61.6,7.9,123.7,5.6,185.5,5.8,66.7.2,133.4-.1,200.1,0,24,0,38.7,10.5,45.2,31.3,11.8,37.6-11.3,69.2-50.8,69.2-148.6.1-460.8,0-460.8,0,24.4,44.8,47.6,87.2,70.1,129.8,4.9,9.1,10.3,11.7,20,11.7,118.7-.1,237.3.5,356,.4h0Z"/>
    <path class="st1" d="M1888.3,870.9c-67.9-125.3-135.9-250.5-203.9-375.7-45.2-83-90.4-166.1-135.7-249h-246.9c-1.8,3.8-3.5,7.8-5.6,11.6-111.3,204.9-222.6,409.7-333.8,614.7-2.1,4-5.8,7.6-5.2,13.4,71.1,0,142.2-.1,213.1.2,7,0,8.4-4.7,10.7-9.2,14.6-28.9,29.4-57.7,43.5-86.8,3.4-6.7,7.2-9.1,14.8-9.1,124.3.3,248.6.2,372.8,0,7.5,0,11.4,2,14.8,9,14,28.8,28.9,56.9,42.7,85.7,3.8,7.8,7.9,10.5,16.6,10.4,58-.3,116.1-.2,174.1-.2h33.6c.6-6.7-3.4-10.6-5.8-15h0ZM1538,645.3c-75.7-.3-151.4-.2-227.1-.2h-9.9c42.2-78.8,83.1-155.6,124.6-233.2,2.4,3.8,4.3,6.6,5.9,9.5,37.8,70.8,75.4,141.6,113.5,212.2,5.2,9.8,4,11.8-7,11.7h0Z"/>
  </g>
</svg>