<?xml version="1.0" encoding="UTF-8"?>
<svg id="Ebene_1" xmlns="http://www.w3.org/2000/svg" version="1.1" xmlns:xlink="http://www.w3.org/1999/xlink" viewBox="0 0 15.6 10">
  <!-- Generator: Adobe Illustrator 29.8.4, SVG Export Plug-In . SVG Version: 2.1.1 Build 6)  -->
  <defs>
    <style>
      .st0 {
        fill: none;
      }

      .st1 {
        fill: #34393b;
      }

      .st2 {
        clip-path: url(#clippath);
      }
    </style>
    <clipPath id="clippath">
      <rect class="st0" width="15.6" height="10"/>
    </clipPath>
  </defs>
  <g class="st2">
    <path class="st1" d="M7,3.2c-.1-1.3-1-2.4-2.2-2.9-.2,0-.3-.1-.5-.1C4.1,0,3.8,0,3.5,0c-.9,0-1.8.4-2.4,1C.4,1.6,0,2.5,0,3.5,0,5.5,1.6,7.1,3.5,7.1s0,0,.1,0c0,0,0,0,0,0s0,0,0,0c0,0,0,0,0,0s0,0,0,0h0s0,0,0,0c0,0,0,0,0,0h0s0,0,0,0,0,0,0,0h0s0,0,0,0c0,0,0,0,0,0-.2.9-.5,1.8-1.1,2.5-.2.2,0,.5.4.4,2.3-1.2,3.9-3.4,4-6.1,0-.1,0-.3,0-.4s0-.2,0-.4"/>
    <path class="st1" d="M15.6,3.2c-.1-1.3-1-2.4-2.2-2.9-.1,0-.3-.1-.5-.1C12.6,0,12.4,0,12.1,0c-.9,0-1.8.4-2.4,1-.7.6-1.1,1.6-1.1,2.6,0,2,1.6,3.5,3.5,3.5s0,0,.1,0c0,0,0,0,0,0,0,0,0,0,0,0,0,0,0,0,0,0s0,0,0,0h0s0,0,0,0c0,0,0,0,0,0h0s0,0,0,0,0,0,0,0h0s0,0,0,0c0,0,0,0,0,0-.2.9-.5,1.8-1.1,2.5-.2.2,0,.5.4.4,2.3-1.2,3.9-3.4,4-6.1,0-.1,0-.3,0-.4s0-.2,0-.4"/>
  </g>
</svg>