<?xml version="1.0" encoding="UTF-8"?>
<svg id="Ebene_1" data-name="Ebene 1" xmlns="http://www.w3.org/2000/svg" xmlns:xlink="http://www.w3.org/1999/xlink" viewBox="0 0 59.61 56">
  <defs>
    <style>
      .cls-1 {
        fill: none;
      }

      .cls-2 {
        clip-path: url(#clippath);
      }

      .cls-3 {
        fill: #7fb129;
      }
    </style>
    <clipPath id="clippath">
      <rect class="cls-1" width="59.61" height="56"/>
    </clipPath>
  </defs>
  <g class="cls-2">
    <path class="cls-3" d="M36.57,27.99c0,4.72-3.83,8.56-8.56,8.56s-8.56-3.83-8.56-8.56,3.83-8.56,8.56-8.56,8.56,3.83,8.56,8.56M26.56,13.09v1.67c0,.48-.34.89-.81.98-1.73.32-3.34.99-4.79,1.99-.4.27-.93.22-1.27-.12l-1.19-1.18-2.05,2.05,1.19,1.19c.34.34.39.87.12,1.27-1,1.45-1.67,3.06-1.99,4.79-.09.47-.5.81-.98.81h-1.67v2.91h1.67c.48,0,.89.34.98.81.32,1.73.99,3.34,1.99,4.79.27.39.22.93-.11,1.27l-1.19,1.18,2.05,2.05,1.19-1.18c.34-.34.87-.39,1.27-.11,1.45,1,3.06,1.67,4.79,1.99.47.09.81.5.81.98v1.67h2.9v-1.67c0-.48.34-.89.81-.98,1.73-.32,3.34-.99,4.79-1.99.4-.27.93-.22,1.27.11l1.18,1.18,2.05-2.05-1.19-1.18c-.34-.34-.39-.87-.12-1.27,1-1.45,1.67-3.06,1.99-4.79.08-.47.5-.81.97-.81h1.68v-2.91h-1.68c-.48,0-.89-.34-.97-.81-.32-1.73-.99-3.34-1.99-4.79-.27-.39-.22-.93.12-1.27l1.19-1.19-2.05-2.05-1.18,1.18c-.34.34-.87.39-1.27.12-1.45-1-3.06-1.67-4.79-1.99-.47-.09-.81-.5-.81-.98v-1.67h-2.9Z"/>
    <path class="cls-3" d="M53.51,4.17l-6.11,9.7h2.74c.56,0,1.01.45,1.01,1.01v13.11c0,12.84-10.42,23.28-23.22,23.28S4.71,40.83,4.71,27.99,14.59,5.26,26.92,4.73V0C11.99.53,0,12.89,0,27.99s12.53,28.01,27.93,28.01,27.93-12.56,27.93-28.01v-13.11c0-.56.45-1.01,1.01-1.01h2.74l-6.11-9.7Z"/>
  </g>
</svg>